<svg viewBox="0 0 500 500" xmlns="http://www.w3.org/2000/svg" xmlns:xlink="http://www.w3.org/1999/xlink" width="100%" id="blobSvg">
  <defs>
    <pattern id="pattern" x="0" y="0" width="40" height="40" patternUnits="userSpaceOnUse" fill="#d1d8e0">
      <path d="M0 38.59l2.83-2.83 1.41 1.41L1.41 40H0v-1.41zM0 1.4l2.83 2.83 1.41-1.41L1.41 0H0v1.41zM38.59 40l-2.83-2.83 1.41-1.41L40 38.59V40h-1.41zM40 1.41l-2.83 2.83-1.41-1.41L38.59 0H40v1.41zM20 18.6l2.83-2.83 1.41 1.41L21.41 20l2.83 2.83-1.41 1.41L20 21.41l-2.83 2.83-1.41-1.41L18.59 20l-2.83-2.83 1.41-1.41L20 18.59z"></path>
    </pattern>
  </defs>
  <path id="blob" d="M465.5,297.5Q463,345,434.5,384Q406,423,362.5,442Q319,461,272,476Q225,491,180,470.5Q135,450,108.5,411Q82,372,72,331Q62,290,69,251.5Q76,213,66.5,161.5Q57,110,99.5,87Q142,64,186.5,65Q231,66,267.5,74Q304,82,339.5,97Q375,112,425,131Q475,150,471.5,200Q468,250,465.5,297.5Z" fill="url(#pattern)"></path>
</svg>