<svg width="784" height="582" viewBox="0 0 784 582" fill="none" xmlns="http://www.w3.org/2000/svg">
<g clip-path="url(#clip0_581_432)">
<g filter="url(#filter0_d_581_432)">
<path d="M47.2981 472.65C48.2624 508.64 54.2917 544.315 65.2084 578.623C65.4504 579.419 65.7191 580.204 65.9805 581H132.813C132.743 580.286 132.67 579.49 132.6 578.623C128.144 527.395 153.601 219.32 184.32 166C181.628 170.325 42.1162 309.873 47.2981 472.65Z" fill="#E6E6E6"/>
</g>
<g filter="url(#filter1_d_581_432)">
<path d="M52.3132 578.624C52.8723 579.42 53.4532 580.216 54.0486 581H104.188C103.808 580.323 103.367 579.526 102.857 578.624C94.5745 563.676 70.0591 518.982 47.3032 472.65C22.858 422.859 0.411998 371.181 2.30224 352.477C1.71644 356.693 -15.2064 485.294 52.3132 578.624Z" fill="#E6E6E6"/>
</g>
<g filter="url(#filter2_d_581_432)">
<path d="M266.73 398.376C266.571 398.964 266.459 399.563 266.395 400.168L218.116 425.523L206.905 418.464L194.04 433.989L212.67 448.416C214.176 449.581 216.018 450.227 217.922 450.256C219.825 450.285 221.686 449.696 223.227 448.577L273.421 412.113C275.585 413.013 277.972 413.233 280.264 412.744C282.557 412.254 284.645 411.079 286.253 409.373C287.861 407.667 288.911 405.513 289.265 403.195C289.618 400.878 289.257 398.508 288.231 396.401C287.204 394.294 285.561 392.549 283.518 391.399C281.476 390.248 279.132 389.747 276.798 389.961C274.464 390.176 272.25 391.096 270.452 392.599C268.653 394.102 267.355 396.117 266.73 398.376V398.376Z" fill="#FFD5D5"/>
</g>
<g filter="url(#filter3_d_581_432)">
<path d="M324.938 570.183L334.619 563.957L315.213 523.657L300.926 532.845L324.938 570.183Z" fill="#FFD4D4"/>
</g>
<g filter="url(#filter4_d_581_432)">
<path d="M320.437 568.61L339.5 556.35L339.501 556.35C342.723 554.278 346.637 553.571 350.38 554.384C354.124 555.197 357.391 557.464 359.463 560.686L359.717 561.081L328.504 581.154L320.437 568.61Z" fill="#2F2E41"/>
</g>
<g filter="url(#filter5_d_581_432)">
<path d="M185.47 500.96L259.777 453.384C259.777 453.384 273.43 452.067 281.624 468.215L331.113 539.303L309.999 553.59L255.083 496.568L217.4 533.836C217.4 533.836 272.92 524.731 271.043 561.343C269.553 590.399 193.565 580.432 162.262 575.08C156.316 574.11 150.657 571.843 145.686 568.44C140.715 565.037 136.554 560.581 133.498 555.389C130.14 549.566 128.336 542.955 131.156 536.705C138.675 520.037 185.47 500.96 185.47 500.96Z" fill="#2F2E41"/>
</g>
<g filter="url(#filter6_d_581_432)">
<path d="M148.633 540.72L127.219 536.386L133.321 431.285L157.961 401.104L172.641 398.505C177.017 397.712 181.532 398.591 185.29 400.969C189.048 403.348 191.776 407.051 192.932 411.346L199.403 434.984C210.382 453.573 195.002 475.127 193.583 477.042L194.382 509.641L148.633 540.72Z" fill="#EFEFEF"/>
</g>
<path d="M168.572 405.221L169.93 400.415C169.93 400.415 184.675 389.547 207.206 417.71L196.41 436.955L172.94 436.016L168.572 405.221Z" fill="#EFEFEF"/>
<g filter="url(#filter7_d_581_432)">
<path d="M202.49 367.818C206.668 384.942 190.202 386.214 170.671 390.979C151.139 395.743 135.937 402.195 131.76 385.072C127.583 367.948 127.913 335.709 155.544 328.969C184.127 321.996 198.313 350.695 202.49 367.818Z" fill="#2F2E41"/>
</g>
<g filter="url(#filter8_d_581_432)">
<path d="M164.74 391.677C178.269 391.677 189.236 380.71 189.236 367.182C189.236 353.653 178.269 342.687 164.74 342.687C151.212 342.687 140.245 353.653 140.245 367.182C140.245 380.71 151.212 391.677 164.74 391.677Z" fill="#FFD5D5"/>
</g>
<g filter="url(#filter9_d_581_432)">
<path d="M136.675 371.554L146.088 369.258L147.404 356.618L151.07 368.043L155.569 366.945L156.337 359.572L158.476 366.236L191.903 358.082C190.273 351.401 186.056 345.641 180.179 342.069C174.303 338.497 167.248 337.406 160.566 339.036L155.722 340.217C152.414 341.024 149.297 342.475 146.549 344.487C143.802 346.498 141.477 349.031 139.709 351.941C137.94 354.851 136.762 358.081 136.241 361.446C135.721 364.811 135.868 368.246 136.675 371.554Z" fill="#2F2E41"/>
</g>
<g filter="url(#filter10_d_581_432)">
<path d="M206.691 488.311C206.102 488.464 205.526 488.664 204.969 488.909L159.014 459.549L159.588 446.314L139.726 442.837L136.433 466.169C136.167 468.054 136.52 469.974 137.438 471.642C138.357 473.309 139.791 474.634 141.526 475.417L198.078 500.932C198.369 503.258 199.361 505.44 200.923 507.188C202.484 508.936 204.541 510.167 206.819 510.718C209.098 511.269 211.49 511.113 213.677 510.271C215.865 509.429 217.744 507.941 219.065 506.005C220.387 504.069 221.087 501.776 221.074 499.432C221.06 497.088 220.334 494.804 218.99 492.883C217.647 490.962 215.75 489.496 213.553 488.679C211.356 487.862 208.963 487.734 206.691 488.311V488.311Z" fill="#FFD5D5"/>
</g>
<g filter="url(#filter11_d_581_432)">
<path d="M161.677 405.903L158.214 401.537C158.214 401.537 144.308 397.058 136.798 415.833C129.287 434.609 136.328 452.915 136.328 452.915L169.185 455.731L171.532 425.221L161.677 405.903Z" fill="#EFEFEF"/>
</g>
<g filter="url(#filter12_d_581_432)">
<path d="M527.283 150.684C527.283 139.638 536.237 130.684 547.283 130.684H763.86C774.906 130.684 783.86 139.638 783.86 150.684V210.055C783.86 212.739 781.684 214.914 779.001 214.914V214.914C776.317 214.914 774.142 217.09 774.142 219.773V236.943L757.97 220.772C754.219 217.021 749.132 214.914 743.828 214.914H547.283C536.237 214.914 527.283 205.96 527.283 194.914V150.684Z" fill="#F0F0F0"/>
</g>
<g filter="url(#filter13_d_581_432)">
<path d="M757 139H557C545.954 139 537 147.954 537 159V186C537 197.046 545.954 206 557 206H757C768.046 206 777 197.046 777 186V159C777 147.954 768.046 139 757 139Z" fill="white"/>
</g>
<path d="M670.569 158.559H553.896V162.1H670.569V158.559Z" fill="#82CA8A"/>
<path d="M757.247 170.808H553.896V174.348H757.247V170.808Z" fill="#E6E6E6"/>
<path d="M757.048 183.057H553.896V186.597H757.048V183.057Z" fill="#E6E6E6"/>
<g filter="url(#filter14_d_581_432)">
<path d="M628.578 45C628.578 33.9543 619.624 25 608.578 25H392C380.954 25 372 33.9543 372 45V104.371C372 107.054 374.176 109.23 376.859 109.23V109.23C379.543 109.23 381.719 111.406 381.719 114.09V131.26L397.89 115.088C401.641 111.337 406.728 109.23 412.033 109.23H608.578C619.624 109.23 628.578 100.276 628.578 89.23V45Z" fill="#E6E6E6"/>
</g>
<g filter="url(#filter15_d_581_432)">
<path d="M601.451 33.2026H399.127C388.081 33.2026 379.127 42.1569 379.127 53.2026V80.5868C379.127 91.6325 388.081 100.587 399.127 100.587H601.451C612.496 100.587 621.451 91.6325 621.451 80.5868V53.2026C621.451 42.1569 612.496 33.2026 601.451 33.2026Z" fill="white"/>
</g>
<path d="M517.23 53.5234H400.557V57.0642H517.23V53.5234Z" fill="#565987"/>
<path d="M603.908 65.772H400.557V69.3127H603.908V65.772Z" fill="#E6E6E6"/>
<path d="M603.709 78.0205H400.557V81.5612H603.709V78.0205Z" fill="#E6E6E6"/>
<path d="M312.865 379.645H312.41V367.202C312.41 366.256 312.224 365.32 311.862 364.446C311.5 363.572 310.97 362.778 310.301 362.109C309.632 361.441 308.838 360.91 307.965 360.548C307.091 360.186 306.154 360 305.209 360H278.846C277.9 360 276.964 360.186 276.09 360.548C275.216 360.91 274.422 361.441 273.754 362.109C273.085 362.778 272.554 363.572 272.192 364.446C271.831 365.32 271.644 366.256 271.644 367.202V435.466C271.644 436.412 271.831 437.348 272.192 438.222C272.554 439.096 273.085 439.89 273.754 440.559C274.422 441.227 275.216 441.758 276.09 442.12C276.964 442.482 277.9 442.668 278.846 442.668H305.209C306.154 442.668 307.091 442.482 307.965 442.12C308.838 441.758 309.632 441.227 310.301 440.559C310.97 439.89 311.5 439.096 311.862 438.222C312.224 437.348 312.41 436.412 312.41 435.466V388.502H312.865V379.645Z" fill="#3F3D56"/>
<g filter="url(#filter16_d_581_432)">
<path d="M305.499 361.874H302.058C302.216 362.262 302.277 362.683 302.234 363.1C302.191 363.517 302.046 363.917 301.813 364.264C301.579 364.612 301.263 364.897 300.894 365.094C300.524 365.291 300.111 365.394 299.692 365.394H284.589C284.17 365.394 283.758 365.291 283.388 365.094C283.018 364.897 282.703 364.612 282.469 364.264C282.235 363.917 282.09 363.517 282.048 363.1C282.005 362.683 282.065 362.262 282.224 361.874H279.01C277.583 361.874 276.215 362.441 275.207 363.449C274.198 364.458 273.631 365.826 273.631 367.252V435.416C273.631 436.123 273.77 436.822 274.041 437.475C274.311 438.127 274.707 438.72 275.207 439.219C275.706 439.719 276.299 440.115 276.951 440.385C277.604 440.656 278.303 440.795 279.01 440.795H305.499C306.205 440.795 306.905 440.656 307.557 440.385C308.21 440.115 308.803 439.719 309.302 439.219C309.801 438.72 310.198 438.127 310.468 437.475C310.738 436.822 310.877 436.123 310.877 435.416V435.416V367.252C310.877 366.546 310.738 365.847 310.468 365.194C310.198 364.542 309.801 363.949 309.302 363.449C308.803 362.95 308.21 362.554 307.557 362.283C306.905 362.013 306.205 361.874 305.499 361.874V361.874Z" fill="white"/>
</g>
<g filter="url(#filter17_d_581_432)">
<path d="M598.506 268.549C598.506 257.503 589.552 248.549 578.506 248.549H303.441C292.395 248.549 283.441 257.503 283.441 268.549V340.046C283.441 346.637 288.784 351.98 295.375 351.98V351.98V379.03L322.426 351.98H578.506C589.552 351.98 598.506 343.026 598.506 331.98V268.549Z" fill="white"/>
</g>
<path d="M294.375 381.444V352.979V352.979C287.784 352.979 282.441 347.636 282.441 341.045V267.549C282.441 256.503 291.395 247.549 302.441 247.549H579.506C590.551 247.549 599.506 256.503 599.506 267.549V332.979C599.506 344.025 590.551 352.979 579.506 352.979H322.84L294.375 381.444ZM284.441 339.045C284.441 345.636 289.784 350.979 296.375 350.979V350.979V376.616L322.012 350.979H577.506C588.551 350.979 597.506 342.025 597.506 330.979V269.549C597.506 258.503 588.551 249.549 577.506 249.549H304.441C293.395 249.549 284.441 258.503 284.441 269.549L284.441 339.045Z" fill="#3F3D56"/>
<path d="M461.776 283.574H318.508V287.922H461.776V283.574Z" fill="#6C63FF"/>
<path d="M568.212 298.615H318.508V302.963H568.212V298.615Z" fill="#E6E6E6"/>
<path d="M567.968 313.655H318.508V318.003H567.968V313.655Z" fill="#E6E6E6"/>
<g filter="url(#filter18_d_581_432)">
<path d="M428.892 582H47.8921C47.6269 582 47.3725 581.895 47.185 581.707C46.9974 581.52 46.8921 581.265 46.8921 581C46.8921 580.735 46.9974 580.48 47.185 580.293C47.3725 580.105 47.6269 580 47.8921 580H428.892C429.157 580 429.412 580.105 429.599 580.293C429.787 580.48 429.892 580.735 429.892 581C429.892 581.265 429.787 581.52 429.599 581.707C429.412 581.895 429.157 582 428.892 582Z" fill="#3F3D56"/>
</g>
</g>
<defs>
<filter id="filter0_d_581_432" x="43.1572" y="166" width="145.162" height="423" filterUnits="userSpaceOnUse" color-interpolation-filters="sRGB">
<feFlood flood-opacity="0" result="BackgroundImageFix"/>
<feColorMatrix in="SourceAlpha" type="matrix" values="0 0 0 0 0 0 0 0 0 0 0 0 0 0 0 0 0 0 127 0" result="hardAlpha"/>
<feOffset dy="4"/>
<feGaussianBlur stdDeviation="2"/>
<feComposite in2="hardAlpha" operator="out"/>
<feColorMatrix type="matrix" values="0 0 0 0 0 0 0 0 0 0 0 0 0 0 0 0 0 0 0.25 0"/>
<feBlend mode="normal" in2="BackgroundImageFix" result="effect1_dropShadow_581_432"/>
<feBlend mode="normal" in="SourceGraphic" in2="effect1_dropShadow_581_432" result="shape"/>
</filter>
<filter id="filter1_d_581_432" x="-4" y="352.477" width="112.188" height="236.523" filterUnits="userSpaceOnUse" color-interpolation-filters="sRGB">
<feFlood flood-opacity="0" result="BackgroundImageFix"/>
<feColorMatrix in="SourceAlpha" type="matrix" values="0 0 0 0 0 0 0 0 0 0 0 0 0 0 0 0 0 0 127 0" result="hardAlpha"/>
<feOffset dy="4"/>
<feGaussianBlur stdDeviation="2"/>
<feComposite in2="hardAlpha" operator="out"/>
<feColorMatrix type="matrix" values="0 0 0 0 0 0 0 0 0 0 0 0 0 0 0 0 0 0 0.25 0"/>
<feBlend mode="normal" in2="BackgroundImageFix" result="effect1_dropShadow_581_432"/>
<feBlend mode="normal" in="SourceGraphic" in2="effect1_dropShadow_581_432" result="shape"/>
</filter>
<filter id="filter2_d_581_432" x="190.04" y="389.913" width="103.357" height="68.3438" filterUnits="userSpaceOnUse" color-interpolation-filters="sRGB">
<feFlood flood-opacity="0" result="BackgroundImageFix"/>
<feColorMatrix in="SourceAlpha" type="matrix" values="0 0 0 0 0 0 0 0 0 0 0 0 0 0 0 0 0 0 127 0" result="hardAlpha"/>
<feOffset dy="4"/>
<feGaussianBlur stdDeviation="2"/>
<feComposite in2="hardAlpha" operator="out"/>
<feColorMatrix type="matrix" values="0 0 0 0 0 0 0 0 0 0 0 0 0 0 0 0 0 0 0.25 0"/>
<feBlend mode="normal" in2="BackgroundImageFix" result="effect1_dropShadow_581_432"/>
<feBlend mode="normal" in="SourceGraphic" in2="effect1_dropShadow_581_432" result="shape"/>
</filter>
<filter id="filter3_d_581_432" x="296.926" y="523.657" width="41.6931" height="54.5264" filterUnits="userSpaceOnUse" color-interpolation-filters="sRGB">
<feFlood flood-opacity="0" result="BackgroundImageFix"/>
<feColorMatrix in="SourceAlpha" type="matrix" values="0 0 0 0 0 0 0 0 0 0 0 0 0 0 0 0 0 0 127 0" result="hardAlpha"/>
<feOffset dy="4"/>
<feGaussianBlur stdDeviation="2"/>
<feComposite in2="hardAlpha" operator="out"/>
<feColorMatrix type="matrix" values="0 0 0 0 0 0 0 0 0 0 0 0 0 0 0 0 0 0 0.25 0"/>
<feBlend mode="normal" in2="BackgroundImageFix" result="effect1_dropShadow_581_432"/>
<feBlend mode="normal" in="SourceGraphic" in2="effect1_dropShadow_581_432" result="shape"/>
</filter>
<filter id="filter4_d_581_432" x="316.437" y="554.055" width="47.28" height="35.0996" filterUnits="userSpaceOnUse" color-interpolation-filters="sRGB">
<feFlood flood-opacity="0" result="BackgroundImageFix"/>
<feColorMatrix in="SourceAlpha" type="matrix" values="0 0 0 0 0 0 0 0 0 0 0 0 0 0 0 0 0 0 127 0" result="hardAlpha"/>
<feOffset dy="4"/>
<feGaussianBlur stdDeviation="2"/>
<feComposite in2="hardAlpha" operator="out"/>
<feColorMatrix type="matrix" values="0 0 0 0 0 0 0 0 0 0 0 0 0 0 0 0 0 0 0.25 0"/>
<feBlend mode="normal" in2="BackgroundImageFix" result="effect1_dropShadow_581_432"/>
<feBlend mode="normal" in="SourceGraphic" in2="effect1_dropShadow_581_432" result="shape"/>
</filter>
<filter id="filter5_d_581_432" x="125.762" y="453.358" width="209.351" height="135.796" filterUnits="userSpaceOnUse" color-interpolation-filters="sRGB">
<feFlood flood-opacity="0" result="BackgroundImageFix"/>
<feColorMatrix in="SourceAlpha" type="matrix" values="0 0 0 0 0 0 0 0 0 0 0 0 0 0 0 0 0 0 127 0" result="hardAlpha"/>
<feOffset dy="4"/>
<feGaussianBlur stdDeviation="2"/>
<feComposite in2="hardAlpha" operator="out"/>
<feColorMatrix type="matrix" values="0 0 0 0 0 0 0 0 0 0 0 0 0 0 0 0 0 0 0.25 0"/>
<feBlend mode="normal" in2="BackgroundImageFix" result="effect1_dropShadow_581_432"/>
<feBlend mode="normal" in="SourceGraphic" in2="effect1_dropShadow_581_432" result="shape"/>
</filter>
<filter id="filter6_d_581_432" x="123.219" y="398.221" width="84.1106" height="150.499" filterUnits="userSpaceOnUse" color-interpolation-filters="sRGB">
<feFlood flood-opacity="0" result="BackgroundImageFix"/>
<feColorMatrix in="SourceAlpha" type="matrix" values="0 0 0 0 0 0 0 0 0 0 0 0 0 0 0 0 0 0 127 0" result="hardAlpha"/>
<feOffset dy="4"/>
<feGaussianBlur stdDeviation="2"/>
<feComposite in2="hardAlpha" operator="out"/>
<feColorMatrix type="matrix" values="0 0 0 0 0 0 0 0 0 0 0 0 0 0 0 0 0 0 0.25 0"/>
<feBlend mode="normal" in2="BackgroundImageFix" result="effect1_dropShadow_581_432"/>
<feBlend mode="normal" in="SourceGraphic" in2="effect1_dropShadow_581_432" result="shape"/>
</filter>
<filter id="filter7_d_581_432" x="125.811" y="327.897" width="81.333" height="76.3369" filterUnits="userSpaceOnUse" color-interpolation-filters="sRGB">
<feFlood flood-opacity="0" result="BackgroundImageFix"/>
<feColorMatrix in="SourceAlpha" type="matrix" values="0 0 0 0 0 0 0 0 0 0 0 0 0 0 0 0 0 0 127 0" result="hardAlpha"/>
<feOffset dy="4"/>
<feGaussianBlur stdDeviation="2"/>
<feComposite in2="hardAlpha" operator="out"/>
<feColorMatrix type="matrix" values="0 0 0 0 0 0 0 0 0 0 0 0 0 0 0 0 0 0 0.25 0"/>
<feBlend mode="normal" in2="BackgroundImageFix" result="effect1_dropShadow_581_432"/>
<feBlend mode="normal" in="SourceGraphic" in2="effect1_dropShadow_581_432" result="shape"/>
</filter>
<filter id="filter8_d_581_432" x="136.245" y="342.687" width="56.9902" height="56.9902" filterUnits="userSpaceOnUse" color-interpolation-filters="sRGB">
<feFlood flood-opacity="0" result="BackgroundImageFix"/>
<feColorMatrix in="SourceAlpha" type="matrix" values="0 0 0 0 0 0 0 0 0 0 0 0 0 0 0 0 0 0 127 0" result="hardAlpha"/>
<feOffset dy="4"/>
<feGaussianBlur stdDeviation="2"/>
<feComposite in2="hardAlpha" operator="out"/>
<feColorMatrix type="matrix" values="0 0 0 0 0 0 0 0 0 0 0 0 0 0 0 0 0 0 0.25 0"/>
<feBlend mode="normal" in2="BackgroundImageFix" result="effect1_dropShadow_581_432"/>
<feBlend mode="normal" in="SourceGraphic" in2="effect1_dropShadow_581_432" result="shape"/>
</filter>
<filter id="filter9_d_581_432" x="131.937" y="338.297" width="63.9663" height="41.2568" filterUnits="userSpaceOnUse" color-interpolation-filters="sRGB">
<feFlood flood-opacity="0" result="BackgroundImageFix"/>
<feColorMatrix in="SourceAlpha" type="matrix" values="0 0 0 0 0 0 0 0 0 0 0 0 0 0 0 0 0 0 127 0" result="hardAlpha"/>
<feOffset dy="4"/>
<feGaussianBlur stdDeviation="2"/>
<feComposite in2="hardAlpha" operator="out"/>
<feColorMatrix type="matrix" values="0 0 0 0 0 0 0 0 0 0 0 0 0 0 0 0 0 0 0.25 0"/>
<feBlend mode="normal" in2="BackgroundImageFix" result="effect1_dropShadow_581_432"/>
<feBlend mode="normal" in="SourceGraphic" in2="effect1_dropShadow_581_432" result="shape"/>
</filter>
<filter id="filter10_d_581_432" x="132.347" y="442.837" width="92.7268" height="76.2041" filterUnits="userSpaceOnUse" color-interpolation-filters="sRGB">
<feFlood flood-opacity="0" result="BackgroundImageFix"/>
<feColorMatrix in="SourceAlpha" type="matrix" values="0 0 0 0 0 0 0 0 0 0 0 0 0 0 0 0 0 0 127 0" result="hardAlpha"/>
<feOffset dy="4"/>
<feGaussianBlur stdDeviation="2"/>
<feComposite in2="hardAlpha" operator="out"/>
<feColorMatrix type="matrix" values="0 0 0 0 0 0 0 0 0 0 0 0 0 0 0 0 0 0 0.25 0"/>
<feBlend mode="normal" in2="BackgroundImageFix" result="effect1_dropShadow_581_432"/>
<feBlend mode="normal" in="SourceGraphic" in2="effect1_dropShadow_581_432" result="shape"/>
</filter>
<filter id="filter11_d_581_432" x="129.333" y="401.069" width="46.1987" height="62.6621" filterUnits="userSpaceOnUse" color-interpolation-filters="sRGB">
<feFlood flood-opacity="0" result="BackgroundImageFix"/>
<feColorMatrix in="SourceAlpha" type="matrix" values="0 0 0 0 0 0 0 0 0 0 0 0 0 0 0 0 0 0 127 0" result="hardAlpha"/>
<feOffset dy="4"/>
<feGaussianBlur stdDeviation="2"/>
<feComposite in2="hardAlpha" operator="out"/>
<feColorMatrix type="matrix" values="0 0 0 0 0 0 0 0 0 0 0 0 0 0 0 0 0 0 0.25 0"/>
<feBlend mode="normal" in2="BackgroundImageFix" result="effect1_dropShadow_581_432"/>
<feBlend mode="normal" in="SourceGraphic" in2="effect1_dropShadow_581_432" result="shape"/>
</filter>
<filter id="filter12_d_581_432" x="523.283" y="130.684" width="264.577" height="114.259" filterUnits="userSpaceOnUse" color-interpolation-filters="sRGB">
<feFlood flood-opacity="0" result="BackgroundImageFix"/>
<feColorMatrix in="SourceAlpha" type="matrix" values="0 0 0 0 0 0 0 0 0 0 0 0 0 0 0 0 0 0 127 0" result="hardAlpha"/>
<feOffset dy="4"/>
<feGaussianBlur stdDeviation="2"/>
<feComposite in2="hardAlpha" operator="out"/>
<feColorMatrix type="matrix" values="0 0 0 0 0 0 0 0 0 0 0 0 0 0 0 0 0 0 0.25 0"/>
<feBlend mode="normal" in2="BackgroundImageFix" result="effect1_dropShadow_581_432"/>
<feBlend mode="normal" in="SourceGraphic" in2="effect1_dropShadow_581_432" result="shape"/>
</filter>
<filter id="filter13_d_581_432" x="533" y="139" width="248" height="75" filterUnits="userSpaceOnUse" color-interpolation-filters="sRGB">
<feFlood flood-opacity="0" result="BackgroundImageFix"/>
<feColorMatrix in="SourceAlpha" type="matrix" values="0 0 0 0 0 0 0 0 0 0 0 0 0 0 0 0 0 0 127 0" result="hardAlpha"/>
<feOffset dy="4"/>
<feGaussianBlur stdDeviation="2"/>
<feComposite in2="hardAlpha" operator="out"/>
<feColorMatrix type="matrix" values="0 0 0 0 0 0 0 0 0 0 0 0 0 0 0 0 0 0 0.25 0"/>
<feBlend mode="normal" in2="BackgroundImageFix" result="effect1_dropShadow_581_432"/>
<feBlend mode="normal" in="SourceGraphic" in2="effect1_dropShadow_581_432" result="shape"/>
</filter>
<filter id="filter14_d_581_432" x="368" y="25" width="264.578" height="114.26" filterUnits="userSpaceOnUse" color-interpolation-filters="sRGB">
<feFlood flood-opacity="0" result="BackgroundImageFix"/>
<feColorMatrix in="SourceAlpha" type="matrix" values="0 0 0 0 0 0 0 0 0 0 0 0 0 0 0 0 0 0 127 0" result="hardAlpha"/>
<feOffset dy="4"/>
<feGaussianBlur stdDeviation="2"/>
<feComposite in2="hardAlpha" operator="out"/>
<feColorMatrix type="matrix" values="0 0 0 0 0 0 0 0 0 0 0 0 0 0 0 0 0 0 0.25 0"/>
<feBlend mode="normal" in2="BackgroundImageFix" result="effect1_dropShadow_581_432"/>
<feBlend mode="normal" in="SourceGraphic" in2="effect1_dropShadow_581_432" result="shape"/>
</filter>
<filter id="filter15_d_581_432" x="375.127" y="33.2026" width="250.324" height="75.3843" filterUnits="userSpaceOnUse" color-interpolation-filters="sRGB">
<feFlood flood-opacity="0" result="BackgroundImageFix"/>
<feColorMatrix in="SourceAlpha" type="matrix" values="0 0 0 0 0 0 0 0 0 0 0 0 0 0 0 0 0 0 127 0" result="hardAlpha"/>
<feOffset dy="4"/>
<feGaussianBlur stdDeviation="2"/>
<feComposite in2="hardAlpha" operator="out"/>
<feColorMatrix type="matrix" values="0 0 0 0 0 0 0 0 0 0 0 0 0 0 0 0 0 0 0.25 0"/>
<feBlend mode="normal" in2="BackgroundImageFix" result="effect1_dropShadow_581_432"/>
<feBlend mode="normal" in="SourceGraphic" in2="effect1_dropShadow_581_432" result="shape"/>
</filter>
<filter id="filter16_d_581_432" x="269.631" y="361.874" width="45.2461" height="86.9209" filterUnits="userSpaceOnUse" color-interpolation-filters="sRGB">
<feFlood flood-opacity="0" result="BackgroundImageFix"/>
<feColorMatrix in="SourceAlpha" type="matrix" values="0 0 0 0 0 0 0 0 0 0 0 0 0 0 0 0 0 0 127 0" result="hardAlpha"/>
<feOffset dy="4"/>
<feGaussianBlur stdDeviation="2"/>
<feComposite in2="hardAlpha" operator="out"/>
<feColorMatrix type="matrix" values="0 0 0 0 0 0 0 0 0 0 0 0 0 0 0 0 0 0 0.25 0"/>
<feBlend mode="normal" in2="BackgroundImageFix" result="effect1_dropShadow_581_432"/>
<feBlend mode="normal" in="SourceGraphic" in2="effect1_dropShadow_581_432" result="shape"/>
</filter>
<filter id="filter17_d_581_432" x="279.441" y="248.549" width="323.065" height="138.481" filterUnits="userSpaceOnUse" color-interpolation-filters="sRGB">
<feFlood flood-opacity="0" result="BackgroundImageFix"/>
<feColorMatrix in="SourceAlpha" type="matrix" values="0 0 0 0 0 0 0 0 0 0 0 0 0 0 0 0 0 0 127 0" result="hardAlpha"/>
<feOffset dy="4"/>
<feGaussianBlur stdDeviation="2"/>
<feComposite in2="hardAlpha" operator="out"/>
<feColorMatrix type="matrix" values="0 0 0 0 0 0 0 0 0 0 0 0 0 0 0 0 0 0 0.25 0"/>
<feBlend mode="normal" in2="BackgroundImageFix" result="effect1_dropShadow_581_432"/>
<feBlend mode="normal" in="SourceGraphic" in2="effect1_dropShadow_581_432" result="shape"/>
</filter>
<filter id="filter18_d_581_432" x="42.8921" y="580" width="391" height="10" filterUnits="userSpaceOnUse" color-interpolation-filters="sRGB">
<feFlood flood-opacity="0" result="BackgroundImageFix"/>
<feColorMatrix in="SourceAlpha" type="matrix" values="0 0 0 0 0 0 0 0 0 0 0 0 0 0 0 0 0 0 127 0" result="hardAlpha"/>
<feOffset dy="4"/>
<feGaussianBlur stdDeviation="2"/>
<feComposite in2="hardAlpha" operator="out"/>
<feColorMatrix type="matrix" values="0 0 0 0 0 0 0 0 0 0 0 0 0 0 0 0 0 0 0.25 0"/>
<feBlend mode="normal" in2="BackgroundImageFix" result="effect1_dropShadow_581_432"/>
<feBlend mode="normal" in="SourceGraphic" in2="effect1_dropShadow_581_432" result="shape"/>
</filter>
<clipPath id="clip0_581_432">
<rect width="783.86" height="582" fill="white"/>
</clipPath>
</defs>
</svg>
